<svg width="220" height="140" viewBox="0 0 220 140" fill="none" xmlns="http://www.w3.org/2000/svg">
  <circle cx="82" cy="76" r="34" fill="#CFD4DE"/>
  <circle cx="82" cy="76" r="22" fill="#F6F8FB"/>
  <path d="M82 42L88 54L101 55L92 65L95 78L82 71L69 78L72 65L63 55L76 54L82 42Z" fill="#A8B2C3"/>
  <path d="M95 42H149C159 42 167 50 167 60V68H126L95 42Z" fill="#2E3646"/>
  <path d="M115 66H168V82H130L115 66Z" fill="#E3E7EF"/>
  <rect x="134" y="82" width="16" height="28" rx="5" fill="#282F3F"/>
  <rect x="145" y="80" width="28" height="14" rx="6" fill="#F18721"/>
  <rect x="116" y="90" width="14" height="12" rx="4" fill="#858FA4"/>
</svg>

